<svg width="547" height="583" viewBox="0 0 547 583" fill="none" xmlns="http://www.w3.org/2000/svg">
<path fill-rule="evenodd" clip-rule="evenodd" d="M210.923 8.88267C267.916 -14.1816 333.052 11.9951 388.271 38.7525C443.126 65.3336 492.207 104.597 519.95 158.627C547.287 211.868 553.725 274.549 539.171 332.637C525.559 386.965 478.041 421.948 442.982 465.808C403.403 515.324 367.088 562.909 305.354 578.049C243.522 593.213 186.781 565.417 135.198 528.461C90.8438 496.683 75.7622 460.041 50.4902 411.838C25.6327 364.425 -8.87468 314.794 3.07937 262.588C14.819 211.318 63.6583 186.085 97.0808 145.287C134.878 99.1498 155.502 31.3111 210.923 8.88267Z" fill="#FEBD2E"/>
</svg>
