<svg width="572" height="617" viewBox="0 0 572 617" fill="none" xmlns="http://www.w3.org/2000/svg">
<path fill-rule="evenodd" clip-rule="evenodd" d="M79.0522 27.3984C80.092 11.8843 93.0254 0.000244141 108.574 0.000244141H541.136C557.705 0.000244141 571.136 13.4317 571.136 30.0003V590.015C571.136 591.882 570.368 593.674 568.959 594.899C525.674 632.53 470.614 613.37 414.853 593.966C387.911 584.591 360.806 575.159 334.786 572.048C312.947 569.437 290.752 569.608 268.716 569.778C221.118 570.145 174.26 570.506 133.32 542.808C70.1675 500.081 15.2115 430.297 2.16024 347.006C-5.93043 295.372 15.0623 248.784 36.45 201.319C48.1912 175.263 60.0513 148.942 67.2843 121.377C74.6582 93.276 76.7342 62.1477 78.7879 31.3544C78.8759 30.0351 78.9639 28.7163 79.0522 27.3984Z" fill="#FEBD2E"/>
</svg>
